<svg xmlns="http://www.w3.org/2000/svg" version="1.1" xmlns:xlink="http://www.w3.org/1999/xlink" width="26" height="20"><svg width="26" height="20" viewBox="0 0 26 20" fill="none" xmlns="http://www.w3.org/2000/svg">
<path d="M17.9434 1H8.05656C7.65102 0.999926 7.25606 1.11476 6.92928 1.32776C6.60251 1.54076 6.36102 1.84078 6.24003 2.18406L1.08665 16.8091C0.997594 17.0617 0.976822 17.3295 1.02601 17.5906C1.0752 17.8517 1.19297 18.0989 1.36981 18.3122C1.54665 18.5254 1.77758 18.6988 2.04396 18.8183C2.31033 18.9378 2.60467 19.0001 2.90318 19H23.0968C23.3953 19.0001 23.6897 18.9378 23.956 18.8183C24.2224 18.6988 24.4534 18.5254 24.6302 18.3122C24.807 18.0989 24.9248 17.8517 24.974 17.5906C25.0232 17.3295 25.0024 17.0617 24.9134 16.8091L19.76 2.18406C19.639 1.84078 19.3975 1.54076 19.0707 1.32776C18.7439 1.11476 18.349 0.999926 17.9434 1Z" fill="#D14836" stroke="black"></path>
</svg><style>@media (prefers-color-scheme: light) { :root { filter: none; } }
@media (prefers-color-scheme: dark) { :root { filter: none; } }
</style></svg>