<svg width="163" height="80" viewBox="0 0 163 80" fill="none" xmlns="http://www.w3.org/2000/svg">
<path d="M98.5961 8H64.4039C63.0014 7.99974 61.6355 8.40805 60.5054 9.16538C59.3753 9.92272 58.5402 10.9894 58.1218 12.21L40.2997 64.21C39.9917 65.1084 39.9198 66.0603 40.09 66.9887C40.2601 67.9171 40.6674 68.796 41.2789 69.5544C41.8905 70.3127 42.6891 70.9292 43.6104 71.3541C44.5316 71.7789 45.5495 72.0002 46.5818 72H116.418C117.451 72.0002 118.468 71.7789 119.39 71.3541C120.311 70.9292 121.11 70.3127 121.721 69.5544C122.333 68.796 122.74 67.9171 122.91 66.9887C123.08 66.0603 123.008 65.1084 122.7 64.21L104.878 12.21C104.46 10.9894 103.625 9.92272 102.495 9.16538C101.364 8.40805 99.9986 7.99974 98.5961 8Z" fill="#A8333E"/>
<path d="M26.3438 20.0078L26.7422 27.7422L26.2031 27.7656C26 26.4531 25.6641 25.3672 25.1953 24.5078C24.7266 23.6484 24.0469 22.8906 23.1562 22.2344C22.4219 21.6875 21.5547 21.3047 20.5547 21.0859C19.5547 20.8516 18.2266 20.7344 16.5703 20.7344H11.2031V34.7969H12.6094C14.0312 34.7969 15.1016 34.7031 15.8203 34.5156C16.5391 34.3281 17.125 33.9922 17.5781 33.5078C18.0156 33.0547 18.3359 32.5234 18.5391 31.9141C18.7578 31.2891 18.9375 30.375 19.0781 29.1719L19.6172 29.1953L19.5234 41.7578H18.9844C18.8438 40.5547 18.6328 39.5859 18.3516 38.8516C18.0859 38.1172 17.7109 37.4922 17.2266 36.9766C16.7578 36.4766 16.1484 36.1094 15.3984 35.875C14.6484 35.6406 13.6953 35.5234 12.5391 35.5234H11.2031V40.8906C11.2031 43.0312 11.2578 44.5938 11.3672 45.5781C11.4766 46.5469 11.6875 47.3594 12 48.0156C12.5312 49.1406 13.3359 49.9688 14.4141 50.5C15.5078 51.0156 16.9453 51.2734 18.7266 51.2734C20.6016 51.2734 22.1719 51.0391 23.4375 50.5703C24.7031 50.0859 25.7344 49.3438 26.5312 48.3438C27.0938 47.6719 27.5469 46.9062 27.8906 46.0469C28.25 45.1875 28.5781 44.0547 28.875 42.6484L29.4141 42.6719L29.1094 52H1.14844V51.4609C2.03906 51.4141 2.75781 51.2891 3.30469 51.0859C3.86719 50.8828 4.36719 50.5547 4.80469 50.1016C5.28906 49.6016 5.61719 48.9688 5.78906 48.2031C5.97656 47.4219 6.07031 46.2344 6.07031 44.6406V27.3672C6.07031 25.7734 5.97656 24.5938 5.78906 23.8281C5.61719 23.0469 5.28906 22.4062 4.80469 21.9062C4.38281 21.4531 3.89062 21.125 3.32812 20.9219C2.78125 20.7188 2.05469 20.5938 1.14844 20.5469V20.0078H26.3438ZM13.8281 16.2344L18.4219 10.4688H23.1094L14.9531 16.2344H13.8281ZM31.0547 52V51.4375C32.6328 51.4375 33.8516 50.9922 34.7109 50.1016C35.1953 49.6016 35.5234 48.9688 35.6953 48.2031C35.8828 47.4219 35.9766 46.2344 35.9766 44.6406V27.3672C35.9766 25.7109 35.875 24.4922 35.6719 23.7109C35.4844 22.9141 35.125 22.2656 34.5938 21.7656C34.1562 21.3594 33.6641 21.0625 33.1172 20.875C32.5859 20.6875 31.8984 20.5781 31.0547 20.5469V20.0078H46.0312V20.5469C45.1719 20.5938 44.4688 20.7109 43.9219 20.8984C43.375 21.0859 42.8906 21.3828 42.4688 21.7891C41.9375 22.3047 41.5781 22.9531 41.3906 23.7344C41.2031 24.5156 41.1094 25.7266 41.1094 27.3672V40.8906C41.1094 42.9688 41.1641 44.5156 41.2734 45.5312C41.3828 46.5469 41.5938 47.375 41.9062 48.0156C42.4531 49.1406 43.2656 49.9688 44.3438 50.5C45.4219 51.0156 46.8516 51.2734 48.6328 51.2734C50.4922 51.2734 52.0547 51.0312 53.3203 50.5469C54.6016 50.0469 55.6484 49.2812 56.4609 48.25C57.0078 47.5469 57.4531 46.75 57.7969 45.8594C58.1562 44.9688 58.4844 43.7969 58.7812 42.3438L59.3438 42.3906L59.0391 52H31.0547ZM92.9766 52H77.5781V51.4609C78.9688 51.3359 79.9375 51.1016 80.4844 50.7578C81.4531 50.1484 81.9375 49.3047 81.9375 48.2266C81.9375 47.5859 81.7188 46.7266 81.2812 45.6484L80.8828 44.6641L78.6328 39.1328H68.3203L67.1016 42.3672L66.5156 43.8203C65.8125 45.5391 65.4609 46.8906 65.4609 47.875C65.4609 48.4531 65.5859 48.9922 65.8359 49.4922C66.1016 49.9922 66.4531 50.3984 66.8906 50.7109C67.5 51.1328 68.2812 51.3828 69.2344 51.4609V52H58.7344V51.4609C59.5625 51.4141 60.2891 51.2109 60.9141 50.8516C61.5391 50.4922 62.1484 49.9141 62.7422 49.1172C63.2422 48.4766 63.7266 47.6562 64.1953 46.6562C64.6797 45.6406 65.3125 44.125 66.0938 42.1094L74.6719 20.0078H76.0078L86.2031 44.6406C86.9688 46.5 87.5781 47.8281 88.0312 48.625C88.4844 49.4219 88.9766 50.0234 89.5078 50.4297C89.8828 50.7109 90.3125 50.9297 90.7969 51.0859C91.2812 51.2266 92.0078 51.3516 92.9766 51.4609V52ZM78.2578 38.1719L73.3359 26.0312L68.6953 38.1719H78.2578ZM99.5156 24.25V44.6406C99.5156 46.25 99.6016 47.4375 99.7734 48.2031C99.9609 48.9688 100.297 49.6016 100.781 50.1016C101.219 50.5547 101.711 50.8828 102.258 51.0859C102.82 51.2891 103.547 51.4141 104.438 51.4609V52H93.6328V51.4609C94.5234 51.4141 95.2422 51.2891 95.7891 51.0859C96.3516 50.8828 96.8516 50.5547 97.2891 50.1016C97.7734 49.6016 98.1016 48.9688 98.2734 48.2031C98.4609 47.4219 98.5547 46.2344 98.5547 44.6406V27.3438C98.5547 25.7656 98.4609 24.5938 98.2734 23.8281C98.1016 23.0469 97.7734 22.4062 97.2891 21.9062C96.8672 21.4531 96.375 21.125 95.8125 20.9219C95.2656 20.7188 94.5391 20.5938 93.6328 20.5469V20.0078H102.656L121.688 44.2891V27.3672C121.688 25.7578 121.594 24.5703 121.406 23.8047C121.234 23.0391 120.906 22.4062 120.422 21.9062C119.984 21.4531 119.484 21.125 118.922 20.9219C118.375 20.7188 117.656 20.5938 116.766 20.5469V20.0078H127.57V20.5469C126.008 20.5469 124.789 21 123.914 21.9062C123.43 22.4062 123.094 23.0469 122.906 23.8281C122.734 24.5938 122.648 25.7656 122.648 27.3438V52H121.594L99.5156 24.25ZM162.539 52H147.141V51.4609C148.531 51.3359 149.5 51.1016 150.047 50.7578C151.016 50.1484 151.5 49.3047 151.5 48.2266C151.5 47.5859 151.281 46.7266 150.844 45.6484L150.445 44.6641L148.195 39.1328H137.883L136.664 42.3672L136.078 43.8203C135.375 45.5391 135.023 46.8906 135.023 47.875C135.023 48.4531 135.148 48.9922 135.398 49.4922C135.664 49.9922 136.016 50.3984 136.453 50.7109C137.062 51.1328 137.844 51.3828 138.797 51.4609V52H128.297V51.4609C129.125 51.4141 129.852 51.2109 130.477 50.8516C131.102 50.4922 131.711 49.9141 132.305 49.1172C132.805 48.4766 133.289 47.6562 133.758 46.6562C134.242 45.6406 134.875 44.125 135.656 42.1094L144.234 20.0078H145.57L155.766 44.6406C156.531 46.5 157.141 47.8281 157.594 48.625C158.047 49.4219 158.539 50.0234 159.07 50.4297C159.445 50.7109 159.875 50.9297 160.359 51.0859C160.844 51.2266 161.57 51.3516 162.539 51.4609V52ZM147.82 38.1719L142.898 26.0312L138.258 38.1719H147.82Z" fill="black"/>
<mask id="mask0_283_485" style="mask-type:alpha" maskUnits="userSpaceOnUse" x="31" y="20" width="97" height="32">
<path d="M31.1484 52V51.4375C32.7266 51.4375 33.9453 50.9922 34.8047 50.1016C35.2891 49.6016 35.6172 48.9688 35.7891 48.2031C35.9766 47.4219 36.0703 46.2344 36.0703 44.6406V27.3672C36.0703 25.7109 35.9688 24.4922 35.7656 23.7109C35.5781 22.9141 35.2188 22.2656 34.6875 21.7656C34.25 21.3594 33.7578 21.0625 33.2109 20.875C32.6797 20.6875 31.9922 20.5781 31.1484 20.5469V20.0078H46.125V20.5469C45.2656 20.5938 44.5625 20.7109 44.0156 20.8984C43.4688 21.0859 42.9844 21.3828 42.5625 21.7891C42.0312 22.3047 41.6719 22.9531 41.4844 23.7344C41.2969 24.5156 41.2031 25.7266 41.2031 27.3672V40.8906C41.2031 42.9688 41.2578 44.5156 41.3672 45.5312C41.4766 46.5469 41.6875 47.375 42 48.0156C42.5469 49.1406 43.3594 49.9688 44.4375 50.5C45.5156 51.0156 46.9453 51.2734 48.7266 51.2734C50.5859 51.2734 52.1484 51.0312 53.4141 50.5469C54.6953 50.0469 55.7422 49.2812 56.5547 48.25C57.1016 47.5469 57.5469 46.75 57.8906 45.8594C58.25 44.9688 58.5781 43.7969 58.875 42.3438L59.4375 42.3906L59.1328 52H31.1484ZM93.0703 52H77.6719V51.4609C79.0625 51.3359 80.0312 51.1016 80.5781 50.7578C81.5469 50.1484 82.0312 49.3047 82.0312 48.2266C82.0312 47.5859 81.8125 46.7266 81.375 45.6484L80.9766 44.6641L78.7266 39.1328H68.4141L67.1953 42.3672L66.6094 43.8203C65.9062 45.5391 65.5547 46.8906 65.5547 47.875C65.5547 48.4531 65.6797 48.9922 65.9297 49.4922C66.1953 49.9922 66.5469 50.3984 66.9844 50.7109C67.5938 51.1328 68.375 51.3828 69.3281 51.4609V52H58.8281V51.4609C59.6562 51.4141 60.3828 51.2109 61.0078 50.8516C61.6328 50.4922 62.2422 49.9141 62.8359 49.1172C63.3359 48.4766 63.8203 47.6562 64.2891 46.6562C64.7734 45.6406 65.4062 44.125 66.1875 42.1094L74.7656 20.0078H76.1016L86.2969 44.6406C87.0625 46.5 87.6719 47.8281 88.125 48.625C88.5781 49.4219 89.0703 50.0234 89.6016 50.4297C89.9766 50.7109 90.4062 50.9297 90.8906 51.0859C91.375 51.2266 92.1016 51.3516 93.0703 51.4609V52ZM78.3516 38.1719L73.4297 26.0312L68.7891 38.1719H78.3516ZM99.6094 24.25V44.6406C99.6094 46.25 99.6953 47.4375 99.8672 48.2031C100.055 48.9688 100.391 49.6016 100.875 50.1016C101.312 50.5547 101.805 50.8828 102.352 51.0859C102.914 51.2891 103.641 51.4141 104.531 51.4609V52H93.7266V51.4609C94.6172 51.4141 95.3359 51.2891 95.8828 51.0859C96.4453 50.8828 96.9453 50.5547 97.3828 50.1016C97.8672 49.6016 98.1953 48.9688 98.3672 48.2031C98.5547 47.4219 98.6484 46.2344 98.6484 44.6406V27.3438C98.6484 25.7656 98.5547 24.5938 98.3672 23.8281C98.1953 23.0469 97.8672 22.4062 97.3828 21.9062C96.9609 21.4531 96.4688 21.125 95.9062 20.9219C95.3594 20.7188 94.6328 20.5938 93.7266 20.5469V20.0078H102.75L121.781 44.2891V27.3672C121.781 25.7578 121.688 24.5703 121.5 23.8047C121.328 23.0391 121 22.4062 120.516 21.9062C120.078 21.4531 119.578 21.125 119.016 20.9219C118.469 20.7188 117.75 20.5938 116.859 20.5469V20.0078H127.664V20.5469C126.102 20.5469 124.883 21 124.008 21.9062C123.523 22.4062 123.188 23.0469 123 23.8281C122.828 24.5938 122.742 25.7656 122.742 27.3438V52H121.688L99.6094 24.25Z" fill="white"/>
</mask>
<g mask="url(#mask0_283_485)">
<g filter="url(#filter0_i_283_485)">
<path d="M98.5961 8H64.4039C63.0014 7.99974 61.6355 8.40805 60.5054 9.16538C59.3753 9.92272 58.5402 10.9894 58.1218 12.21L40.2997 64.21C39.9917 65.1084 39.9198 66.0603 40.09 66.9887C40.2601 67.9171 40.6674 68.796 41.2789 69.5544C41.8905 70.3127 42.6891 70.9292 43.6104 71.3541C44.5316 71.7789 45.5495 72.0002 46.5818 72H116.418C117.451 72.0002 118.468 71.7789 119.39 71.3541C120.311 70.9292 121.11 70.3127 121.721 69.5544C122.333 68.796 122.74 67.9171 122.91 66.9887C123.08 66.0603 123.008 65.1084 122.7 64.21L104.878 12.21C104.46 10.9894 103.625 9.92272 102.495 9.16538C101.364 8.40805 99.9986 7.99974 98.5961 8Z" fill="white"/>
</g>
</g>
<defs>
<filter id="filter0_i_283_485" x="40" y="8" width="83" height="66" filterUnits="userSpaceOnUse" color-interpolation-filters="sRGB">
<feFlood flood-opacity="0" result="BackgroundImageFix"/>
<feBlend mode="normal" in="SourceGraphic" in2="BackgroundImageFix" result="shape"/>
<feColorMatrix in="SourceAlpha" type="matrix" values="0 0 0 0 0 0 0 0 0 0 0 0 0 0 0 0 0 0 127 0" result="hardAlpha"/>
<feOffset dy="2"/>
<feGaussianBlur stdDeviation="1"/>
<feComposite in2="hardAlpha" operator="arithmetic" k2="-1" k3="1"/>
<feColorMatrix type="matrix" values="0 0 0 0 0 0 0 0 0 0 0 0 0 0 0 0 0 0 0.25 0"/>
<feBlend mode="normal" in2="shape" result="effect1_innerShadow_283_485"/>
</filter>
</defs>
</svg>
